<svg xmlns="http://www.w3.org/2000/svg" aria-label="cofixpoint" viewBox="-2396.77 -2586.4 4793.55 2810.4"><g fill="none" stroke="#17171a" stroke-linecap="round" stroke-width="14" transform="translate(-1147.05 -2931.75)scale(2.2941)"><path d="M451.21 268.79 268.79 451.21m280-182.42 182.42 182.42m-462.42 97.58 182.42 182.42m280-182.42L548.79 731.21"/><circle cx="500" cy="220" r="52" fill="#17171a"/><circle cx="220" cy="500" r="52"/><circle cx="780" cy="500" r="52"/><circle cx="500" cy="780" r="52"/></g><g fill="#17171a"><path fill-opacity=".55" d="M-2117.7 14q-71.82 0-129.8-30.09-57.97-30.08-91.62-87.08t-33.65-137.31v-13.3q0-80.47 33.65-137.38 33.65-56.92 91.62-87 57.98-30.09 129.8-30.09 70.83 0 121.39 25.26t81.37 68.59q30.8 43.32 40.27 96.92l-110.98 23.56q-4.17-31.58-19.22-57.07-15.05-25.48-42.39-40.45-27.34-14.96-67.96-14.96t-73.14 17.9q-32.51 17.9-51.23 52.5-18.73 34.6-18.73 84.05v9.65q0 49.45 18.73 84.05 18.72 34.6 51.23 52.5 32.52 17.9 73.14 17.9 61.02 0 92.71-31.6t40.04-81.7l110.98 26.02q-12.3 51.96-43.28 95.28-30.98 43.33-81.54 68.59T-2117.7 14m571.48 0q-74 0-132.39-30.26t-91.77-87.18q-33.39-56.91-33.39-136.04v-15.3q0-79.12 33.39-136.03 33.38-56.92 91.77-87.18t132.39-30.26 132.39 30.26 91.77 87.18q33.39 56.91 33.39 136.03v15.3q0 79.13-33.39 136.04-33.38 56.92-91.77 87.18T-1546.22 14m0-101.85q62.9 0 103-40.48 40.1-40.47 40.1-113.97v-9.65q0-73.5-39.69-113.97-39.69-40.48-103.41-40.48-62.72 0-102.91 40.48-40.19 40.47-40.19 113.97v9.65q0 73.5 40.19 113.97 40.19 40.48 102.91 40.48"/><path d="M-1118.27 0v-399h-131.95v-95.25h131.95V-594.3q0-48.37 28.57-77.04 28.58-28.66 75.83-28.66h128.25v95.25h-89.85q-28.35 0-28.35 30v80.5h135.95V-399h-135.95V0zm304.5 0v-494.25h114.45V0zm57.23-556.8q-31.9 0-53.92-20.77-22.01-20.78-22.01-54.33 0-33.73 22.01-54.41Q-788.44-707-756.54-707q32.9 0 54.41 20.69 21.51 20.68 21.51 54.41 0 33.55-21.51 54.33-21.51 20.77-54.41 20.77M-615.72 0l184.02-249.48-181.15-244.77h133.58l121.05 170.95h16.95l121.05-170.95h133.58l-181.15 244.77L-83.77 0h-135.4l-122.1-174h-16.95L-480.32 0zM-.77 200v-694.25h112.45v65.07h16.95q17.7-30.92 55.19-55 37.49-24.07 106.76-24.07 60.88 0 112.23 29.67 51.35 29.68 82.43 86.5 31.09 56.83 31.09 137.3v15.3q0 80.31-31 137.22t-82.35 86.59Q351.63 14 290.58 14q-46.4 0-78.12-11.2-31.73-11.2-51.1-28.84-19.38-17.63-30.73-35.86h-16.95V200zM256.78-86.2q63.2 0 103.97-40.21 40.78-40.22 40.78-115.89v-9.65q0-75.67-41.19-115.89-41.19-40.21-103.56-40.21-62.2 0-103.47 40.21-41.28 40.22-41.28 115.89v9.65q0 75.67 41.28 115.89Q194.58-86.2 256.78-86.2m595 100.2q-74 0-132.39-30.26t-91.77-87.18q-33.39-56.91-33.39-136.04v-15.3q0-79.12 33.39-136.03 33.38-56.92 91.77-87.18t132.39-30.26 132.39 30.26 91.77 87.18q33.39 56.91 33.39 136.03v15.3q0 79.13-33.39 136.04-33.38 56.92-91.77 87.18T851.78 14m0-101.85q62.9 0 103-40.48 40.1-40.47 40.1-113.97v-9.65q0-73.5-39.69-113.97-39.69-40.48-103.41-40.48-62.72 0-102.91 40.48-40.19 40.47-40.19 113.97v9.65q0 73.5 40.19 113.97 40.19 40.48 102.91 40.48M1211.23 0v-494.25h114.45V0zm57.23-556.8q-31.9 0-53.92-20.77-22.01-20.78-22.01-54.33 0-33.73 22.01-54.41 22.02-20.69 53.92-20.69 32.9 0 54.41 20.69 21.51 20.68 21.51 54.41 0 33.55-21.51 54.33-21.51 20.77-54.41 20.77M1452.23 0v-494.25h112.45v69.37h16.95q13.05-28.27 47.45-53 34.4-24.72 103.33-24.72 57.12 0 100.71 25.71 43.59 25.72 68.02 71.87 24.44 46.15 24.44 109.02V0h-114.45v-287.05q0-60.2-29.69-89.42-29.69-29.23-83.49-29.23-60.97 0-96.12 40.43-35.15 40.42-35.15 114.84V0zm768.55 0q-47.25 0-75.83-28.66-28.57-28.67-28.57-77.04V-399h-129.6v-95.25h129.6v-158.9h114.45v158.9h141.95V-399h-141.95v273.75q0 30 28.35 30h99.15V0z"/></g></svg>
